<?xml version="1.0" encoding="utf-8"?>
<!-- Generator: Adobe Illustrator 27.5.0, SVG Export Plug-In . SVG Version: 6.00 Build 0)  -->
<svg version="1.1" xmlns="http://www.w3.org/2000/svg" xmlns:xlink="http://www.w3.org/1999/xlink" x="0px" y="0px"
	 viewBox="0 0 500 500" style="enable-background:new 0 0 500 500;" xml:space="preserve">
<g id="background">
	<g>
		<rect style="fill:#322F40;" width="500" height="500"/>
	</g>
	<linearGradient id="SVGID_1_" gradientUnits="userSpaceOnUse" x1="125.4382" y1="42.7357" x2="230.4332" y2="299.2231">
		<stop  offset="0" style="stop-color:#FF7BAC"/>
		<stop  offset="1" style="stop-color:#FF7BAC;stop-opacity:0"/>
	</linearGradient>
	<path style="fill:url(#SVGID_1_);" d="M500,194.044c-62.403-4.086-123.991,12.265-193-34.044c-76-51-99-28-159,53
		C92.775,287.554,52.798,80.853,0,82.571V500h500V194.044z"/>
</g>
<g id="objects">
	
		<linearGradient id="SVGID_00000170255007782173557250000007183342203241622708_" gradientUnits="userSpaceOnUse" x1="244.4976" y1="136.8449" x2="256.4971" y2="454.829">
		<stop  offset="0" style="stop-color:#FF7BAC"/>
		<stop  offset="1" style="stop-color:#FF7BAC;stop-opacity:0"/>
	</linearGradient>
	<path style="fill:url(#SVGID_00000170255007782173557250000007183342203241622708_);" d="M500,65.316
		C428.395,113.522,411.99,289.997,319,259c-123-41-61,123-223,77c-45.51-12.923-75.787-9.113-96,3.134V500h500V65.316z"/>
	
		<linearGradient id="SVGID_00000131340029025592981970000010523636439735885752_" gradientUnits="userSpaceOnUse" x1="246.9178" y1="290.7772" x2="253.9596" y2="477.3839">
		<stop  offset="0" style="stop-color:#FF7BAC"/>
		<stop  offset="1" style="stop-color:#FF7BAC;stop-opacity:0"/>
	</linearGradient>
	<path style="fill:url(#SVGID_00000131340029025592981970000010523636439735885752_);" d="M500,244.909
		C475.794,323.178,457.597,407.041,388,372c-143-72-121-2-207-2s-60,36-126,24c-28.421-5.167-45.153,3.39-55,14.807V500h500V244.909
		z"/>
	<g>
		<g>
			<path style="fill:#E8709D;" d="M357.367,334.935c-0.612-6.292-7.746-7.947-12.424-4.65c-2.608,1.837-4.146,4.648-5.256,7.567
				c-1.453,3.823-2.516,7.891-3.221,11.917c-1.148,6.559-1.73,14.847,2.953,20.267c3.466,4.011,10.144,5.113,13.991,1.05
				c1.351-1.427-0.805-3.59-2.16-2.159c-3.241,3.422-8.462,1.19-10.553-2.345c-2.586-4.373-2.195-10.243-1.442-15.063
				c0.744-4.767,1.906-9.977,4.007-14.349c1.064-2.212,2.612-4.285,4.963-5.211c2.411-0.949,5.799,0.007,6.088,2.975
				C354.502,336.875,357.559,336.895,357.367,334.935L357.367,334.935z"/>
		</g>
		<g>
			
				<linearGradient id="SVGID_00000152258038662149810290000017527758340074388387_" gradientUnits="userSpaceOnUse" x1="469.2004" y1="226.9584" x2="504.3085" y2="301.7046" gradientTransform="matrix(0.8638 -0.5039 0.5039 0.8638 -116.7198 424.648)">
				<stop  offset="0" style="stop-color:#FF7BAC"/>
				<stop  offset="1" style="stop-color:#FF7BAC;stop-opacity:0"/>
			</linearGradient>
			<path style="fill:url(#SVGID_00000152258038662149810290000017527758340074388387_);" d="M407.341,384.175
				c0,0,49.945,56.32,51.081,56.247c1.136-0.073,24.758,11.201,33.992-8.33v-4.072l-82.068-46.776"/>
			
				<linearGradient id="SVGID_00000161591532033849960630000000133111869823765678_" gradientUnits="userSpaceOnUse" x1="403.0937" y1="433.0139" x2="410.5586" y2="448.9069" gradientTransform="matrix(0.9999 0.0158 -0.0158 0.9999 70.2619 -18.1297)">
				<stop  offset="0.0237" style="stop-color:#FF7BAC;stop-opacity:0.2796"/>
				<stop  offset="0.6816" style="stop-color:#FF7BAC;stop-opacity:0.2796"/>
			</linearGradient>
			<path style="fill:url(#SVGID_00000161591532033849960630000000133111869823765678_);" d="M492.004,431.69
				c-0.052,3.236-9.477,5.711-21.051,5.527c-11.574-0.183-20.915-2.954-20.864-6.19c0.051-3.236,9.476-5.711,21.05-5.527
				C482.713,425.684,492.055,428.455,492.004,431.69z"/>
		</g>
		<path style="fill:#E8709D;" d="M376.118,419.327c0,0,6.42-17.126,5.082-20.578c-1.097-2.829-5.677-18.934-7.295-24.654
			l-18.909,4.463c0.949,3.87,4.452,17.633,6.669,19.419c2.583,2.082,1.819,5.492,1.819,5.492s-1.415,27.248,2.039,28.586
			c3.454,1.338,24.476,1.76,22.911-4.869C386.87,420.558,376.118,419.327,376.118,419.327z"/>
		<path style="fill:#FF7BAC;" d="M353.948,327.565c0,0-8.653,7.806-7.636,16.459c1.019,8.654-3.564,32.071,2.546,33.599
			c6.108,1.527,11.708,3.055,11.708,3.055s0,18.326,2.036,20.871c2.036,2.546,0.509,5.6,0.509,5.6s-7.636,25.453-4.581,27.489
			c3.055,2.037,23.417,7.127,23.417,0.51c0-6.618-10.182-10.182-10.182-10.182s10.182-14.763,9.673-18.326
			c-0.51-3.564-1.527-26.98-1.527-26.98s5.6-3.055,6.108-12.218c0.509-9.163-6.108-39.197-6.108-39.197"/>
		<g>
			<path style="fill:#FF7BAC;" d="M385.511,305.844c4.18,11.707-2.107,22.098-12.52,24.392c-12.518,2.76-20.32-2.499-23.115-14.211
				C343.685,290.079,378.13,285.179,385.511,305.844z"/>
			<path style="fill:#E8709D;" d="M370.748,317.043c0,4.965,2.839,9.234,6.914,11.147c7.296-3.689,12.564-10.364,9.376-19.29
				c-0.476-1.333-1.081-2.572-1.792-3.722c-0.895-0.229-1.828-0.352-2.79-0.352C375.99,304.826,370.748,310.296,370.748,317.043z"/>
		</g>
		<polyline style="fill:#FF7BAC;" points="390.092,372.531 405.873,377.113 408.419,373.55 414.019,378.64 407.4,388.313 
			401.292,385.767 401.292,379.658 396.201,377.113 		"/>
		<path style="fill:#E8709D;" d="M368.678,336.184c1.04-0.477,11.75,15.24,13.45,16.74c2.794,2.464,6.419,7.103,8.596,9.93
			c2.382,3.094,4.93,6.266,7.04,9.491c1.957-0.965,2.416,0.401,3.23,1.964c1.089,2.086,2.2,4.259,2.303,6.609
			c0.041,0.95-0.103,1.947-0.646,2.729c-0.703,1.01-6.359,1.403-7.686,1.146c-2.366-0.459-2.28-1.432-3.327-3.376
			c-2.364-4.393-5.122-6.587-9.145-9.578c-6.018-4.474-19.403-14.108-21.927-21.706
			C358.374,343.529,361.181,339.624,368.678,336.184z"/>
	</g>
	<g>
		<g>
			<path style="fill:#E8709D;" d="M102.753,276.539c0.449-4.614,5.681-5.828,9.11-3.411c1.912,1.348,3.04,3.409,3.854,5.549
				c1.065,2.805,1.845,5.787,2.362,8.739c0.842,4.81,1.269,10.887-2.165,14.861c-2.542,2.941-7.439,3.749-10.26,0.771
				c-0.991-1.047,0.59-2.633,1.584-1.584c2.376,2.51,6.206,0.873,7.739-1.72c1.896-3.206,1.609-7.511,1.058-11.045
				c-0.546-3.496-1.398-7.315-2.938-10.521c-0.779-1.622-1.915-3.143-3.639-3.821c-1.768-0.695-4.252,0.005-4.464,2.183
				C104.854,277.96,102.613,277.975,102.753,276.539L102.753,276.539z"/>
		</g>
		<g>
			
				<linearGradient id="SVGID_00000165218586220568492310000015689700498372893103_" gradientUnits="userSpaceOnUse" x1="255.7739" y1="161.6337" x2="281.5107" y2="216.428" gradientTransform="matrix(0.2212 -0.9752 -0.9752 -0.2212 162.0856 557.0966)">
				<stop  offset="0" style="stop-color:#FF7BAC"/>
				<stop  offset="1" style="stop-color:#FF7BAC;stop-opacity:0"/>
			</linearGradient>
			<path style="fill:url(#SVGID_00000165218586220568492310000015689700498372893103_);" d="M61.665,266.849
				c0,0-51.466-17.038-51.665-17.849c-0.199-0.811-12.212-20.343-0.585-31.103L12.263,217l50.791,47.101"/>
			
				<linearGradient id="SVGID_00000115487950281028744210000017635462646763225754_" gradientUnits="userSpaceOnUse" x1="170.1734" y1="473.9156" x2="175.647" y2="485.569" gradientTransform="matrix(-0.1135 -0.9935 -0.9935 0.1135 511.7876 352.4552)">
				<stop  offset="0.0237" style="stop-color:#FF7BAC;stop-opacity:0.2796"/>
				<stop  offset="0.6816" style="stop-color:#FF7BAC;stop-opacity:0.2796"/>
			</linearGradient>
			<path style="fill:url(#SVGID_00000115487950281028744210000017635462646763225754_);" d="M12.161,219.298
				c-2.358,0.27-3.488,7.324-2.525,15.758c0.963,8.434,3.655,15.052,6.013,14.783c2.358-0.269,3.489-7.324,2.526-15.758
				C17.21,225.648,14.519,219.029,12.161,219.298z"/>
		</g>
		<path style="fill:#E8709D;" d="M89.003,338.422c0,0-4.707-12.558-3.727-15.089c0.804-2.075,4.163-13.884,5.349-18.079
			l13.866,3.272c-0.696,2.838-3.264,12.93-4.89,14.24c-1.895,1.526-1.334,4.026-1.334,4.026s1.038,19.981-1.496,20.963
			c-2.533,0.98-17.947,1.29-16.8-3.57C81.119,339.324,89.003,338.422,89.003,338.422z"/>
		<path style="fill:#FF7BAC;" d="M105.26,271.133c0,0,6.346,5.724,5.6,12.07c-0.747,6.346,2.613,23.518-1.867,24.637
			c-4.479,1.12-8.586,2.24-8.586,2.24s0,13.438-1.494,15.305c-1.493,1.866-0.373,4.106-0.373,4.106s5.6,18.665,3.36,20.158
			c-2.24,1.493-17.172,5.226-17.172,0.373c0-4.853,7.466-7.466,7.466-7.466s-7.466-10.826-7.092-13.438
			c0.373-2.613,1.12-19.785,1.12-19.785s-4.106-2.239-4.479-8.959c-0.373-6.719,4.479-28.743,4.479-28.743"/>
		<g>
			<path style="fill:#FF7BAC;" d="M82.116,255.206c-3.065,8.584,1.545,16.204,9.181,17.887c9.179,2.023,14.9-1.833,16.95-10.421
				C112.787,243.645,87.528,240.052,82.116,255.206z"/>
			<path style="fill:#E8709D;" d="M92.941,263.418c0,3.641-2.082,6.772-5.07,8.173c-5.35-2.704-9.213-7.6-6.876-14.145
				c0.349-0.977,0.793-1.887,1.314-2.728c0.656-0.168,1.34-0.259,2.046-0.259C89.097,254.459,92.941,258.471,92.941,263.418z"/>
		</g>
		<polyline style="fill:#FF7BAC;" points="73.607,276.349 66.928,266.32 68.859,263.755 64.066,260.959 58.758,267.718 
			61.883,271.431 66.156,270.085 69.058,273.085 		"/>
		<path style="fill:#E8709D;" d="M103.746,283.322c0.105-0.832-13.247-4.861-14.67-5.721c-2.339-1.412-6.382-2.926-8.839-3.826
			c-2.688-0.984-5.468-2.068-8.188-2.834c0.244-1.581-0.813-1.601-2.085-1.827c-1.699-0.301-3.463-0.601-5.13-0.154
			c-0.674,0.181-1.34,0.5-1.766,1.053c-0.551,0.714,0.419,4.757,0.891,5.628c0.842,1.555,1.503,1.279,3.094,1.584
			c3.593,0.686,5.735,2.132,8.713,4.287c4.455,3.224,14.141,10.464,20.011,10.556C100.878,292.147,102.991,289.324,103.746,283.322z
			"/>
	</g>
	<circle style="fill:#FF7BAC;" cx="48" cy="39" r="1"/>
	<circle style="fill:#FF7BAC;" cx="72" cy="123" r="1"/>
	<circle style="fill:#FF7BAC;" cx="101.5" cy="38.5" r="1.5"/>
	<circle style="fill:#FF7BAC;" cx="203" cy="69" r="3"/>
	<circle style="fill:#FF7BAC;" cx="372" cy="113" r="2"/>
	<circle style="fill:#FF7BAC;" cx="450.5" cy="33.5" r="1.5"/>
	<circle style="fill:#FF7BAC;" cx="356.5" cy="31.5" r="1.5"/>
	<circle style="fill:#FF7BAC;" cx="154.5" cy="143.5" r="2.5"/>
	<circle style="fill:#FF7BAC;" cx="277" cy="30" r="1"/>
	<circle style="fill:#FF7BAC;" cx="411" cy="93" r="2"/>
	<circle style="fill:#FF7BAC;" cx="471.5" cy="186.5" r="3.5"/>
	<circle style="fill:#FF7BAC;" cx="381.5" cy="170.5" r="2.5"/>
	<circle style="fill:#FF7BAC;" cx="133.5" cy="211.5" r="2.5"/>
	<circle style="fill:#FF7BAC;" cx="21.5" cy="185.5" r="1.5"/>
	<circle style="fill:#FF7BAC;" cx="32" cy="133" r="2"/>
	<path style="fill:#FF7BAC;" d="M159,297c0,0-0.448,0-1,0s-1,0-1,0s0.448,0,1,0S159,297,159,297z"/>
	<circle style="fill:#FF7BAC;" cx="236" cy="174" r="2"/>
	<circle style="fill:#FF7BAC;" cx="283.5" cy="298.5" r="1.5"/>
	<circle style="fill:#FF7BAC;" cx="339" cy="227" r="1"/>
	<circle style="fill:#FF7BAC;" cx="208" cy="255" r="1"/>
	<circle style="fill:#FF7BAC;" cx="32" cy="414" r="1"/>
	<path style="fill:#FF7BAC;" d="M116,446c0,0-0.448,0-1,0s-1,0-1,0s0.448,0,1,0S116,446,116,446z"/>
	<circle style="fill:#FF7BAC;" cx="153.5" cy="388.5" r="1.5"/>
	<circle style="fill:#FF7BAC;" cx="290.5" cy="409.5" r="1.5"/>
	<circle style="fill:#FF7BAC;" cx="439.5" cy="438.5" r="1.5"/>
	<circle style="fill:#FF7BAC;" cx="492.5" cy="354.5" r="1.5"/>
	<text transform="matrix(1 0 0 1 132.0005 237.0908)" style="fill:#FFFFFF; font-family:'PrintBold'; font-size:161.6177px;">404</text>
	<text transform="matrix(1 0 0 1 207.0181 288.6621)" style="fill:#FFFFFF; font-family:'PrintClearly'; font-size:37.2467px;">ERROR</text>
	<text transform="matrix(1 0 0 1 143.3091 103.1792)" style="fill:#FFFFFF; font-family:'PrintClearly'; font-size:37.2467px;">Page not found</text>
	<line style="fill:none;stroke:#FFFFFF;stroke-width:2;stroke-miterlimit:10;" x1="148" y1="250" x2="354" y2="250"/>
	<line style="fill:none;stroke:#FFFFFF;stroke-width:2;stroke-miterlimit:10;" x1="148" y1="122" x2="354" y2="122"/>
</g>
<g id="designed_by_freepik">
	<g>
		<g>
			<path style="fill:#FFFFFF;" d="M168.811,483.885v-0.189c-0.253,0.29-0.503,0.528-0.75,0.708
				c-0.247,0.184-0.514,0.322-0.803,0.416c-0.287,0.097-0.602,0.142-0.943,0.142c-0.452,0-0.871-0.095-1.256-0.285
				c-0.385-0.192-0.718-0.466-0.999-0.821c-0.282-0.353-0.495-0.771-0.64-1.251c-0.145-0.479-0.218-0.998-0.218-1.556
				c0-1.181,0.289-2.101,0.864-2.761c0.577-0.658,1.335-0.988,2.275-0.988c0.544,0,1.002,0.094,1.376,0.28
				c0.374,0.186,0.738,0.476,1.092,0.86v-2.785c0-0.389,0.077-0.681,0.232-0.879c0.154-0.198,0.374-0.298,0.661-0.298
				c0.286,0,0.505,0.091,0.66,0.274c0.154,0.183,0.232,0.45,0.232,0.807v8.326c0,0.359-0.082,0.628-0.248,0.809
				c-0.167,0.18-0.381,0.269-0.644,0.269c-0.258,0-0.472-0.092-0.64-0.278C168.895,484.496,168.811,484.229,168.811,483.885z
				 M165.099,481.111c0,0.512,0.08,0.947,0.238,1.307c0.159,0.36,0.377,0.63,0.653,0.813c0.277,0.182,0.579,0.274,0.906,0.274
				c0.332,0,0.635-0.087,0.91-0.261c0.274-0.172,0.493-0.438,0.656-0.795c0.165-0.356,0.246-0.805,0.246-1.338
				c0-0.504-0.081-0.935-0.246-1.299c-0.164-0.36-0.385-0.637-0.664-0.829c-0.279-0.19-0.584-0.285-0.916-0.285
				c-0.346,0-0.655,0.098-0.927,0.293c-0.273,0.196-0.483,0.477-0.633,0.843C165.172,480.201,165.099,480.626,165.099,481.111z"/>
			<path style="fill:#FFFFFF;" d="M177.136,481.589h-3.691c0.004,0.429,0.09,0.807,0.259,1.134c0.167,0.327,0.393,0.574,0.671,0.739
				c0.279,0.166,0.587,0.249,0.923,0.249c0.226,0,0.432-0.025,0.618-0.078c0.188-0.055,0.369-0.137,0.543-0.251
				c0.176-0.112,0.337-0.232,0.484-0.362c0.147-0.129,0.337-0.306,0.574-0.526c0.097-0.082,0.235-0.125,0.415-0.125
				c0.193,0,0.35,0.055,0.469,0.161c0.12,0.106,0.181,0.254,0.181,0.449c0,0.171-0.067,0.368-0.201,0.598
				c-0.134,0.228-0.335,0.447-0.605,0.656c-0.271,0.211-0.608,0.384-1.018,0.523c-0.407,0.139-0.876,0.207-1.406,0.207
				c-1.212,0-2.156-0.346-2.829-1.036c-0.672-0.691-1.009-1.63-1.009-2.815c0-0.559,0.083-1.076,0.249-1.553
				c0.166-0.478,0.408-0.886,0.726-1.228c0.318-0.341,0.71-0.603,1.176-0.785c0.465-0.182,0.982-0.272,1.549-0.272
				c0.736,0,1.369,0.154,1.897,0.466c0.529,0.312,0.924,0.714,1.187,1.206c0.262,0.493,0.395,0.997,0.395,1.508
				c0,0.477-0.136,0.783-0.408,0.924C178.014,481.518,177.63,481.589,177.136,481.589z M173.445,480.517h3.423
				c-0.045-0.646-0.221-1.129-0.522-1.449c-0.303-0.321-0.7-0.48-1.193-0.48c-0.471,0-0.856,0.162-1.158,0.486
				C173.692,479.399,173.509,479.88,173.445,480.517z"/>
			<path style="fill:#FFFFFF;" d="M185.739,482.493c0,0.521-0.126,0.968-0.38,1.339c-0.253,0.371-0.628,0.652-1.124,0.845
				c-0.496,0.19-1.099,0.285-1.809,0.285c-0.677,0-1.258-0.104-1.742-0.312c-0.484-0.206-0.842-0.466-1.072-0.776
				c-0.23-0.313-0.346-0.624-0.346-0.939c0-0.207,0.073-0.384,0.222-0.531c0.146-0.146,0.335-0.221,0.561-0.221
				c0.198,0,0.349,0.048,0.455,0.145c0.107,0.097,0.208,0.233,0.304,0.407c0.193,0.338,0.426,0.587,0.695,0.755
				c0.27,0.165,0.637,0.249,1.103,0.249c0.379,0,0.689-0.085,0.93-0.253c0.242-0.17,0.363-0.361,0.363-0.577
				c0-0.333-0.126-0.573-0.377-0.726c-0.252-0.152-0.665-0.299-1.242-0.436c-0.65-0.161-1.179-0.331-1.587-0.509
				c-0.408-0.177-0.734-0.411-0.979-0.701c-0.245-0.29-0.367-0.648-0.367-1.072c0-0.377,0.113-0.735,0.339-1.072
				c0.226-0.336,0.56-0.605,1-0.805c0.439-0.201,0.97-0.302,1.593-0.302c0.489,0,0.929,0.051,1.317,0.153
				c0.391,0.1,0.716,0.237,0.976,0.408c0.261,0.169,0.459,0.358,0.594,0.566c0.137,0.207,0.204,0.409,0.204,0.608
				c0,0.216-0.072,0.393-0.217,0.533c-0.145,0.137-0.351,0.207-0.62,0.207c-0.193,0-0.358-0.055-0.493-0.167
				c-0.137-0.109-0.292-0.276-0.467-0.497c-0.143-0.185-0.311-0.332-0.504-0.443c-0.194-0.11-0.457-0.165-0.79-0.165
				c-0.341,0-0.624,0.071-0.85,0.218c-0.226,0.145-0.338,0.325-0.338,0.542c0,0.199,0.082,0.361,0.248,0.487
				c0.166,0.128,0.39,0.233,0.672,0.316c0.281,0.082,0.667,0.183,1.162,0.303c0.584,0.144,1.063,0.313,1.434,0.512
				c0.371,0.197,0.652,0.433,0.844,0.702C185.644,481.841,185.739,482.148,185.739,482.493z"/>
			<path style="fill:#FFFFFF;" d="M187.668,476.408c-0.263,0-0.488-0.081-0.674-0.241c-0.187-0.161-0.28-0.39-0.28-0.686
				c0-0.268,0.095-0.486,0.287-0.66c0.191-0.173,0.415-0.26,0.668-0.26c0.245,0,0.461,0.078,0.65,0.235
				c0.189,0.157,0.284,0.385,0.284,0.685c0,0.291-0.093,0.518-0.277,0.681C188.14,476.326,187.921,476.408,187.668,476.408z
				 M188.602,478.358v5.456c0,0.379-0.09,0.664-0.27,0.857c-0.18,0.193-0.408,0.29-0.685,0.29c-0.277,0-0.502-0.098-0.674-0.297
				c-0.173-0.197-0.259-0.482-0.259-0.85v-5.4c0-0.373,0.085-0.654,0.259-0.844c0.173-0.189,0.397-0.284,0.674-0.284
				c0.277,0,0.505,0.095,0.685,0.284C188.511,477.76,188.602,478.022,188.602,478.358z"/>
			<path style="fill:#FFFFFF;" d="M196.872,478.67v5.483c0,0.627-0.067,1.167-0.201,1.619c-0.133,0.451-0.348,0.825-0.643,1.119
				c-0.295,0.295-0.681,0.515-1.158,0.657c-0.477,0.144-1.071,0.215-1.781,0.215c-0.65,0-1.232-0.091-1.743-0.273
				c-0.511-0.183-0.904-0.418-1.182-0.705c-0.277-0.288-0.416-0.584-0.416-0.889c0-0.231,0.078-0.42,0.235-0.564
				c0.157-0.147,0.346-0.219,0.567-0.219c0.276,0,0.519,0.122,0.727,0.367c0.101,0.124,0.206,0.25,0.314,0.377
				c0.108,0.128,0.229,0.235,0.359,0.325c0.131,0.09,0.289,0.156,0.474,0.201c0.184,0.042,0.397,0.064,0.636,0.064
				c0.489,0,0.869-0.067,1.138-0.204c0.27-0.136,0.459-0.326,0.567-0.57c0.109-0.243,0.172-0.505,0.191-0.785
				c0.018-0.278,0.032-0.727,0.041-1.346c-0.291,0.407-0.626,0.716-1.007,0.928c-0.38,0.212-0.833,0.318-1.358,0.318
				c-0.632,0-1.184-0.162-1.657-0.484c-0.472-0.323-0.835-0.774-1.089-1.355c-0.254-0.582-0.38-1.252-0.38-2.013
				c0-0.565,0.077-1.079,0.232-1.534c0.155-0.458,0.374-0.842,0.66-1.156c0.286-0.313,0.616-0.549,0.989-0.708
				c0.373-0.159,0.783-0.239,1.23-0.239c0.535,0,0.999,0.104,1.391,0.308c0.391,0.206,0.756,0.527,1.092,0.966v-0.257
				c0-0.326,0.081-0.58,0.242-0.761c0.162-0.179,0.37-0.27,0.623-0.27c0.364,0,0.606,0.119,0.725,0.357
				C196.812,477.88,196.872,478.223,196.872,478.67z M191.402,481.063c0,0.766,0.167,1.345,0.501,1.735
				c0.334,0.392,0.767,0.589,1.297,0.589c0.313,0,0.608-0.086,0.887-0.253c0.28-0.168,0.506-0.423,0.683-0.761
				c0.174-0.339,0.262-0.75,0.262-1.234c0-0.77-0.169-1.37-0.508-1.798c-0.339-0.428-0.785-0.643-1.338-0.643
				c-0.54,0-0.972,0.204-1.297,0.615C191.564,479.724,191.402,480.307,191.402,481.063z"/>
			<path style="fill:#FFFFFF;" d="M199.872,478.331v0.228c0.331-0.438,0.695-0.76,1.089-0.964c0.394-0.205,0.846-0.309,1.358-0.309
				c0.498,0,0.943,0.109,1.335,0.325c0.391,0.218,0.686,0.523,0.877,0.919c0.126,0.231,0.207,0.48,0.243,0.748
				c0.037,0.268,0.056,0.608,0.056,1.023v3.513c0,0.379-0.087,0.664-0.26,0.857c-0.172,0.193-0.397,0.29-0.674,0.29
				c-0.281,0-0.509-0.098-0.684-0.297c-0.177-0.197-0.263-0.482-0.263-0.85v-3.147c0-0.622-0.087-1.099-0.26-1.428
				c-0.173-0.329-0.517-0.495-1.034-0.495c-0.336,0-0.643,0.101-0.919,0.302c-0.277,0.2-0.48,0.476-0.608,0.826
				c-0.093,0.281-0.139,0.806-0.139,1.576v2.365c0,0.383-0.089,0.67-0.266,0.862c-0.177,0.19-0.407,0.285-0.688,0.285
				c-0.273,0-0.496-0.098-0.671-0.297c-0.175-0.197-0.263-0.482-0.263-0.85v-5.456c0-0.36,0.078-0.629,0.234-0.807
				c0.157-0.177,0.371-0.266,0.643-0.266c0.166,0,0.317,0.04,0.451,0.118c0.133,0.079,0.24,0.196,0.321,0.353
				C199.832,477.913,199.872,478.105,199.872,478.331z"/>
			<path style="fill:#FFFFFF;" d="M211.357,481.589h-3.692c0.005,0.429,0.091,0.807,0.26,1.134c0.169,0.327,0.392,0.574,0.67,0.739
				c0.279,0.166,0.586,0.249,0.923,0.249c0.226,0,0.432-0.025,0.62-0.078c0.186-0.055,0.367-0.137,0.542-0.251
				c0.174-0.112,0.335-0.232,0.484-0.362c0.146-0.129,0.338-0.306,0.573-0.526c0.097-0.082,0.235-0.125,0.415-0.125
				c0.193,0,0.351,0.055,0.471,0.161c0.119,0.106,0.179,0.254,0.179,0.449c0,0.171-0.067,0.368-0.201,0.598
				c-0.134,0.228-0.335,0.447-0.606,0.656c-0.269,0.211-0.607,0.384-1.015,0.523c-0.408,0.139-0.877,0.207-1.408,0.207
				c-1.212,0-2.155-0.346-2.829-1.036c-0.673-0.691-1.01-1.63-1.01-2.815c0-0.559,0.083-1.076,0.249-1.553
				c0.167-0.478,0.408-0.886,0.727-1.228c0.318-0.341,0.71-0.603,1.175-0.785c0.466-0.182,0.982-0.272,1.549-0.272
				c0.737,0,1.37,0.154,1.897,0.466c0.529,0.312,0.924,0.714,1.188,1.206c0.262,0.493,0.394,0.997,0.394,1.508
				c0,0.477-0.136,0.783-0.408,0.924C212.234,481.518,211.852,481.589,211.357,481.589z M207.665,480.517h3.423
				c-0.045-0.646-0.22-1.129-0.521-1.449c-0.302-0.321-0.7-0.48-1.193-0.48c-0.471,0-0.857,0.162-1.159,0.486
				C207.913,479.399,207.73,479.88,207.665,480.517z"/>
			<path style="fill:#FFFFFF;" d="M219.053,483.885v-0.189c-0.253,0.29-0.503,0.528-0.749,0.708
				c-0.247,0.184-0.514,0.322-0.802,0.416c-0.288,0.097-0.603,0.142-0.944,0.142c-0.452,0-0.87-0.095-1.255-0.285
				c-0.385-0.192-0.718-0.466-0.999-0.821c-0.281-0.353-0.495-0.771-0.64-1.251c-0.145-0.479-0.218-0.998-0.218-1.556
				c0-1.181,0.287-2.101,0.864-2.761c0.577-0.658,1.335-0.988,2.275-0.988c0.544,0,1.003,0.094,1.376,0.28
				c0.374,0.186,0.738,0.476,1.092,0.86v-2.785c0-0.389,0.078-0.681,0.232-0.879c0.154-0.198,0.375-0.298,0.661-0.298
				c0.286,0,0.505,0.091,0.66,0.274c0.155,0.183,0.232,0.45,0.232,0.807v8.326c0,0.359-0.082,0.628-0.249,0.809
				c-0.166,0.18-0.38,0.269-0.643,0.269c-0.258,0-0.472-0.092-0.64-0.278C219.138,484.496,219.053,484.229,219.053,483.885z
				 M215.34,481.111c0,0.512,0.08,0.947,0.239,1.307c0.158,0.36,0.377,0.63,0.654,0.813c0.276,0.182,0.578,0.274,0.905,0.274
				c0.333,0,0.636-0.087,0.91-0.261c0.274-0.172,0.493-0.438,0.657-0.795c0.164-0.356,0.246-0.805,0.246-1.338
				c0-0.504-0.082-0.935-0.246-1.299c-0.164-0.36-0.385-0.637-0.664-0.829c-0.279-0.19-0.584-0.285-0.917-0.285
				c-0.345,0-0.655,0.098-0.926,0.293c-0.272,0.196-0.483,0.477-0.633,0.843C215.415,480.201,215.34,480.626,215.34,481.111z"/>
			<path style="fill:#FFFFFF;" d="M226.77,475.559v2.882c0.354-0.368,0.717-0.651,1.085-0.846c0.369-0.196,0.826-0.295,1.37-0.295
				c0.627,0,1.176,0.149,1.649,0.445c0.472,0.299,0.838,0.73,1.099,1.294c0.261,0.564,0.392,1.234,0.392,2.01
				c0,0.571-0.073,1.095-0.218,1.572c-0.145,0.479-0.357,0.892-0.633,1.242c-0.277,0.35-0.613,0.621-1.007,0.813
				c-0.394,0.19-0.829,0.285-1.303,0.285c-0.291,0-0.564-0.034-0.82-0.104c-0.256-0.068-0.474-0.159-0.653-0.273
				c-0.179-0.112-0.333-0.229-0.46-0.348c-0.126-0.12-0.294-0.301-0.501-0.541v0.189c0,0.354-0.085,0.622-0.256,0.806
				c-0.17,0.183-0.387,0.272-0.649,0.272c-0.268,0-0.481-0.089-0.64-0.272c-0.159-0.184-0.239-0.452-0.239-0.806v-8.244
				c0-0.383,0.077-0.673,0.231-0.867c0.154-0.196,0.371-0.295,0.647-0.295c0.291,0,0.514,0.094,0.67,0.28
				C226.691,474.946,226.77,475.211,226.77,475.559z M226.86,481.167c0,0.751,0.171,1.328,0.515,1.73
				c0.343,0.403,0.794,0.607,1.352,0.607c0.474,0,0.884-0.206,1.227-0.62c0.343-0.412,0.515-1.004,0.515-1.773
				c0-0.498-0.071-0.928-0.214-1.287c-0.143-0.359-0.346-0.637-0.608-0.833c-0.263-0.195-0.57-0.293-0.92-0.293
				c-0.36,0-0.681,0.098-0.961,0.293c-0.282,0.196-0.503,0.478-0.664,0.851C226.94,480.213,226.86,480.654,226.86,481.167z"/>
			<path style="fill:#FFFFFF;" d="M234.813,485.198l0.173-0.422l-2.324-5.851c-0.142-0.336-0.215-0.582-0.215-0.734
				c0-0.16,0.042-0.31,0.125-0.447c0.084-0.14,0.197-0.251,0.343-0.333c0.145-0.084,0.296-0.125,0.453-0.125
				c0.271,0,0.477,0.087,0.615,0.26c0.139,0.172,0.261,0.42,0.366,0.742l1.598,4.647l1.515-4.321
				c0.119-0.35,0.229-0.624,0.325-0.823c0.097-0.198,0.199-0.332,0.307-0.399c0.108-0.07,0.262-0.105,0.461-0.105
				c0.144,0,0.28,0.038,0.411,0.115c0.132,0.075,0.233,0.178,0.305,0.307c0.07,0.13,0.107,0.265,0.107,0.408
				c-0.02,0.087-0.048,0.212-0.091,0.374c-0.041,0.161-0.092,0.326-0.151,0.491l-2.462,6.444c-0.212,0.567-0.42,1.011-0.623,1.334
				c-0.203,0.322-0.471,0.571-0.805,0.744c-0.335,0.173-0.785,0.26-1.352,0.26c-0.554,0-0.969-0.06-1.244-0.179
				c-0.277-0.121-0.416-0.341-0.416-0.659c0-0.216,0.066-0.384,0.198-0.5c0.131-0.118,0.325-0.178,0.583-0.178
				c0.103,0,0.202,0.014,0.299,0.042c0.119,0.027,0.223,0.042,0.31,0.042c0.217,0,0.389-0.031,0.513-0.097
				c0.124-0.065,0.235-0.177,0.335-0.336C234.569,485.741,234.683,485.507,234.813,485.198z"/>
		</g>
		<g>
			<path style="fill:#FFFFFF;" d="M262.161,477.449h0.451v-0.565c0-0.594,0.072-1.061,0.224-1.411
				c0.147-0.349,0.403-0.602,0.762-0.761c0.357-0.158,0.847-0.237,1.468-0.237c1.107,0,1.655,0.268,1.655,0.811
				c0,0.174-0.059,0.324-0.175,0.448c-0.112,0.123-0.251,0.186-0.407,0.186c-0.072,0-0.201-0.013-0.384-0.042
				c-0.172-0.025-0.328-0.042-0.453-0.042c-0.34,0-0.558,0.103-0.659,0.304c-0.092,0.2-0.142,0.486-0.142,0.861v0.449h0.461
				c0.721,0,1.077,0.217,1.077,0.653c0,0.304-0.092,0.502-0.285,0.586c-0.19,0.082-0.454,0.123-0.792,0.123h-0.461v5.003
				c0,0.373-0.089,0.655-0.269,0.85c-0.177,0.199-0.404,0.296-0.688,0.296c-0.268,0-0.487-0.097-0.668-0.296
				c-0.178-0.195-0.265-0.478-0.265-0.85v-5.003h-0.521c-0.283,0-0.496-0.06-0.65-0.19c-0.151-0.124-0.229-0.29-0.229-0.493
				C261.213,477.674,261.528,477.449,262.161,477.449"/>
			<path style="fill:#FFFFFF;" d="M268.343,482.236v1.578c0,0.381-0.097,0.67-0.273,0.859c-0.18,0.193-0.407,0.287-0.683,0.287
				c-0.277,0-0.501-0.096-0.674-0.292c-0.173-0.191-0.264-0.478-0.264-0.854v-5.259c0-0.849,0.306-1.272,0.919-1.272
				c0.316,0,0.54,0.098,0.68,0.297c0.138,0.199,0.215,0.491,0.23,0.879c0.225-0.388,0.455-0.68,0.691-0.879
				c0.241-0.199,0.555-0.297,0.952-0.297c0.399,0,0.781,0.098,1.155,0.297c0.375,0.199,0.561,0.464,0.561,0.789
				c0,0.229-0.081,0.423-0.237,0.569c-0.161,0.152-0.332,0.227-0.515,0.227c-0.073,0-0.241-0.046-0.504-0.131
				c-0.266-0.083-0.502-0.127-0.701-0.127c-0.277,0-0.505,0.075-0.678,0.218c-0.177,0.149-0.314,0.361-0.411,0.646
				c-0.094,0.287-0.159,0.63-0.199,1.022C268.358,481.189,268.343,481.67,268.343,482.236"/>
			<path style="fill:#FFFFFF;" d="M277.022,481.586h-3.695c0.008,0.429,0.092,0.81,0.259,1.135c0.171,0.326,0.393,0.573,0.673,0.741
				c0.28,0.165,0.586,0.247,0.925,0.247c0.226,0,0.431-0.024,0.618-0.081c0.185-0.051,0.367-0.135,0.542-0.248
				c0.177-0.111,0.336-0.232,0.483-0.364c0.147-0.127,0.34-0.303,0.576-0.523c0.098-0.083,0.236-0.127,0.414-0.127
				c0.194,0,0.35,0.055,0.472,0.162c0.121,0.107,0.178,0.255,0.178,0.449c0,0.171-0.065,0.37-0.194,0.597
				c-0.137,0.231-0.338,0.449-0.609,0.659c-0.272,0.208-0.611,0.384-1.018,0.521c-0.407,0.138-0.878,0.208-1.407,0.208
				c-1.216,0-2.157-0.345-2.829-1.035c-0.673-0.692-1.013-1.633-1.013-2.816c0-0.559,0.085-1.076,0.253-1.554
				c0.164-0.479,0.405-0.886,0.727-1.229c0.317-0.343,0.707-0.603,1.175-0.785c0.464-0.183,0.98-0.273,1.549-0.273
				c0.736,0,1.369,0.156,1.898,0.471c0.526,0.308,0.927,0.711,1.186,1.205c0.264,0.494,0.395,0.995,0.395,1.51
				c0,0.473-0.137,0.779-0.408,0.922C277.898,481.517,277.516,481.586,277.022,481.586 M273.327,480.513h3.423
				c-0.045-0.645-0.216-1.128-0.519-1.446c-0.305-0.321-0.698-0.48-1.194-0.48c-0.471,0-0.857,0.16-1.159,0.487
				C273.576,479.397,273.392,479.877,273.327,480.513"/>
			<path style="fill:#FFFFFF;" d="M284.876,481.586h-3.693c0.005,0.429,0.092,0.81,0.258,1.135c0.169,0.326,0.393,0.573,0.671,0.741
				c0.279,0.165,0.586,0.247,0.926,0.247c0.224,0,0.432-0.024,0.614-0.081c0.189-0.051,0.368-0.135,0.546-0.248
				c0.177-0.111,0.336-0.232,0.484-0.364c0.145-0.127,0.338-0.303,0.574-0.523c0.098-0.083,0.237-0.127,0.414-0.127
				c0.194,0,0.351,0.055,0.474,0.162c0.119,0.107,0.175,0.255,0.175,0.449c0,0.171-0.064,0.37-0.199,0.597
				c-0.13,0.231-0.331,0.449-0.604,0.659c-0.271,0.208-0.611,0.384-1.017,0.521c-0.405,0.138-0.879,0.208-1.408,0.208
				c-1.214,0-2.154-0.345-2.83-1.035c-0.672-0.692-1.011-1.633-1.011-2.816c0-0.559,0.084-1.076,0.253-1.554
				c0.165-0.479,0.407-0.886,0.725-1.229c0.317-0.343,0.708-0.603,1.175-0.785c0.465-0.183,0.983-0.273,1.55-0.273
				c0.735,0,1.368,0.156,1.902,0.471c0.525,0.308,0.922,0.711,1.181,1.205c0.262,0.494,0.396,0.995,0.396,1.51
				c0,0.473-0.139,0.779-0.408,0.922C285.751,481.517,285.368,481.586,284.876,481.586 M281.183,480.513h3.423
				c-0.047-0.645-0.222-1.128-0.521-1.446c-0.307-0.321-0.7-0.48-1.195-0.48c-0.471,0-0.856,0.16-1.16,0.487
				C281.429,479.397,281.244,479.877,281.183,480.513"/>
			<path style="fill:#FFFFFF;" d="M289.012,478.346v0.226c0.354-0.438,0.724-0.759,1.11-0.964c0.377-0.208,0.813-0.311,1.297-0.311
				c0.579,0,1.118,0.152,1.608,0.449c0.489,0.302,0.873,0.739,1.157,1.315c0.283,0.579,0.427,1.26,0.427,2.049
				c0,0.579-0.083,1.115-0.245,1.603c-0.163,0.486-0.391,0.893-0.677,1.223c-0.286,0.327-0.623,0.583-1.011,0.761
				c-0.396,0.177-0.81,0.265-1.259,0.265c-0.537,0-0.992-0.108-1.358-0.326c-0.365-0.212-0.715-0.533-1.049-0.949v2.834
				c0,0.826-0.303,1.244-0.906,1.244c-0.357,0-0.589-0.107-0.707-0.32c-0.11-0.217-0.17-0.525-0.17-0.939v-8.15
				c0-0.359,0.078-0.625,0.232-0.806c0.157-0.174,0.373-0.265,0.645-0.265c0.268,0,0.485,0.091,0.652,0.271
				C288.929,477.739,289.012,478,289.012,478.346 M292.713,481.089c0-0.499-0.076-0.928-0.228-1.284
				c-0.152-0.358-0.363-0.632-0.63-0.821c-0.268-0.191-0.57-0.288-0.897-0.288c-0.521,0-0.96,0.206-1.317,0.614
				c-0.358,0.412-0.539,1.016-0.539,1.814c0,0.748,0.179,1.335,0.536,1.752c0.354,0.418,0.791,0.626,1.32,0.626
				c0.312,0,0.604-0.093,0.871-0.272c0.271-0.184,0.484-0.457,0.644-0.821C292.632,482.044,292.713,481.603,292.713,481.089"/>
			<path style="fill:#FFFFFF;" d="M296.512,476.404c-0.265,0-0.488-0.084-0.673-0.245c-0.19-0.162-0.281-0.387-0.281-0.681
				c0-0.268,0.095-0.488,0.288-0.663c0.19-0.17,0.412-0.259,0.666-0.259c0.247,0,0.462,0.077,0.649,0.232
				c0.189,0.159,0.284,0.39,0.284,0.689c0,0.29-0.092,0.518-0.274,0.681C296.986,476.32,296.768,476.404,296.512,476.404
				 M297.445,478.353v5.463c0,0.375-0.089,0.661-0.268,0.853c-0.182,0.196-0.408,0.292-0.686,0.292
				c-0.277,0-0.499-0.097-0.675-0.296c-0.171-0.2-0.259-0.483-0.259-0.849v-5.408c0-0.371,0.088-0.651,0.259-0.841
				c0.176-0.192,0.397-0.284,0.675-0.284c0.277,0,0.504,0.092,0.686,0.284C297.356,477.757,297.445,478.022,297.445,478.353"/>
			<path style="fill:#FFFFFF;" d="M303.532,484.099l-1.662-2.741l-1.025,0.967v1.505c0,0.362-0.097,0.641-0.289,0.836
				c-0.188,0.199-0.412,0.296-0.66,0.296c-0.29,0-0.52-0.096-0.685-0.292c-0.165-0.191-0.251-0.478-0.251-0.854v-8.055
				c0-0.418,0.084-0.736,0.242-0.957c0.162-0.222,0.397-0.328,0.693-0.328c0.29,0,0.52,0.1,0.691,0.299
				c0.171,0.197,0.258,0.49,0.258,0.876v4.582l2.123-2.23c0.263-0.274,0.461-0.466,0.602-0.567c0.138-0.101,0.306-0.15,0.502-0.15
				c0.237,0,0.433,0.075,0.595,0.225c0.153,0.149,0.232,0.338,0.232,0.563c0,0.275-0.257,0.647-0.768,1.107l-1.003,0.919
				l1.936,3.046c0.141,0.228,0.248,0.396,0.309,0.513c0.061,0.117,0.096,0.233,0.096,0.338c0,0.3-0.084,0.534-0.249,0.709
				c-0.164,0.172-0.381,0.258-0.645,0.258c-0.23,0-0.411-0.059-0.534-0.186C303.916,484.649,303.744,484.423,303.532,484.099"/>
			<path style="fill:#FFFFFF;" d="M307.636,484.961c-0.285,0-0.53-0.091-0.737-0.277c-0.208-0.181-0.313-0.441-0.313-0.775
				c0-0.28,0.102-0.523,0.299-0.724c0.2-0.203,0.442-0.306,0.734-0.306c0.29,0,0.536,0.103,0.745,0.3
				c0.203,0.201,0.307,0.446,0.307,0.729c0,0.33-0.103,0.589-0.307,0.772C308.154,484.87,307.912,484.961,307.636,484.961"/>
			<path style="fill:#FFFFFF;" d="M317.027,482.624c0,0.233-0.071,0.486-0.212,0.753c-0.14,0.27-0.355,0.523-0.646,0.765
				c-0.287,0.242-0.648,0.439-1.088,0.585c-0.438,0.147-0.933,0.223-1.479,0.223c-1.169,0-2.081-0.341-2.736-1.02
				c-0.651-0.681-0.979-1.594-0.979-2.737c0-0.778,0.149-1.461,0.45-2.057c0.298-0.593,0.731-1.054,1.297-1.379
				c0.567-0.326,1.25-0.488,2.035-0.488c0.49,0,0.938,0.071,1.349,0.215c0.407,0.143,0.752,0.329,1.038,0.554
				c0.281,0.228,0.499,0.468,0.647,0.722c0.15,0.257,0.225,0.495,0.225,0.719c0,0.225-0.082,0.416-0.25,0.573
				c-0.171,0.156-0.375,0.235-0.61,0.235c-0.159,0-0.29-0.041-0.394-0.12c-0.105-0.081-0.222-0.211-0.349-0.394
				c-0.231-0.349-0.471-0.612-0.726-0.786c-0.25-0.177-0.568-0.263-0.957-0.263c-0.555,0-1.007,0.216-1.35,0.652
				c-0.34,0.434-0.512,1.034-0.512,1.787c0,0.355,0.046,0.685,0.134,0.981c0.085,0.296,0.212,0.551,0.378,0.76
				c0.168,0.209,0.367,0.368,0.602,0.477c0.236,0.112,0.497,0.164,0.775,0.164c0.38,0,0.704-0.088,0.973-0.263
				c0.274-0.175,0.512-0.442,0.719-0.802c0.114-0.212,0.238-0.377,0.371-0.498c0.132-0.119,0.297-0.182,0.491-0.182
				c0.23,0,0.423,0.089,0.572,0.265C316.949,482.239,317.027,482.427,317.027,482.624"/>
			<path style="fill:#FFFFFF;" d="M325.175,481.124c0,0.561-0.089,1.081-0.259,1.558c-0.18,0.475-0.432,0.883-0.764,1.221
				c-0.332,0.342-0.729,0.604-1.189,0.787c-0.465,0.181-0.982,0.272-1.557,0.272c-0.572,0-1.087-0.092-1.545-0.278
				c-0.453-0.181-0.852-0.446-1.183-0.788c-0.336-0.347-0.589-0.752-0.767-1.22c-0.166-0.47-0.255-0.987-0.255-1.552
				c0-0.573,0.09-1.097,0.261-1.571c0.176-0.477,0.43-0.883,0.756-1.219c0.329-0.336,0.725-0.595,1.188-0.779
				c0.47-0.181,0.983-0.271,1.545-0.271c0.571,0,1.091,0.091,1.557,0.277c0.465,0.184,0.862,0.448,1.197,0.786
				c0.333,0.346,0.585,0.749,0.757,1.218C325.088,480.037,325.175,480.554,325.175,481.124 M323.279,481.124
				c0-0.771-0.171-1.369-0.508-1.798c-0.337-0.434-0.794-0.647-1.365-0.647c-0.37,0-0.695,0.097-0.978,0.287
				c-0.281,0.19-0.496,0.472-0.648,0.848c-0.151,0.374-0.229,0.81-0.229,1.309c0,0.493,0.074,0.923,0.225,1.291
				c0.152,0.371,0.365,0.653,0.646,0.85c0.28,0.193,0.607,0.294,0.984,0.294c0.571,0,1.028-0.216,1.365-0.649
				C323.108,482.479,323.279,481.882,323.279,481.124"/>
			<path style="fill:#FFFFFF;" d="M332.377,481.262v2.51c0,0.398-0.088,0.693-0.269,0.893c-0.182,0.199-0.417,0.297-0.712,0.297
				c-0.286,0-0.519-0.098-0.693-0.297c-0.179-0.2-0.27-0.495-0.27-0.893v-3.007c0-0.477-0.016-0.847-0.047-1.111
				c-0.033-0.257-0.123-0.476-0.264-0.643c-0.143-0.171-0.371-0.256-0.678-0.256c-0.619,0-1.024,0.212-1.221,0.642
				c-0.194,0.419-0.296,1.029-0.296,1.826v2.549c0,0.392-0.089,0.688-0.263,0.891c-0.182,0.199-0.414,0.3-0.702,0.3
				c-0.289,0-0.522-0.101-0.704-0.3c-0.184-0.202-0.274-0.499-0.274-0.891v-5.402c0-0.355,0.081-0.625,0.244-0.809
				c0.167-0.186,0.383-0.277,0.648-0.277c0.26,0,0.475,0.09,0.649,0.259c0.172,0.174,0.258,0.412,0.258,0.717v0.178
				c0.33-0.39,0.681-0.679,1.052-0.859c0.376-0.188,0.788-0.281,1.248-0.281c0.473,0,0.881,0.096,1.221,0.284
				c0.342,0.189,0.622,0.477,0.845,0.856c0.32-0.384,0.661-0.671,1.027-0.859c0.364-0.188,0.767-0.281,1.21-0.281
				c0.514,0,0.961,0.104,1.335,0.306c0.371,0.202,0.65,0.495,0.835,0.87c0.161,0.345,0.24,0.881,0.24,1.614v3.686
				c0,0.398-0.088,0.693-0.268,0.893c-0.179,0.199-0.418,0.297-0.712,0.297c-0.287,0-0.52-0.101-0.702-0.3
				c-0.183-0.202-0.275-0.499-0.275-0.891v-3.175c0-0.407-0.017-0.732-0.049-0.975c-0.035-0.246-0.13-0.452-0.279-0.617
				c-0.155-0.165-0.387-0.25-0.694-0.25c-0.248,0-0.484,0.078-0.709,0.225c-0.224,0.143-0.398,0.347-0.525,0.592
				C332.448,479.89,332.377,480.454,332.377,481.262"/>
		</g>
		<g>
			<path style="fill:#FFFFFF;" d="M244.492,480.666c-0.001-0.003-0.001-0.007-0.001-0.013
				C244.491,480.659,244.491,480.663,244.492,480.666z"/>
			<path style="fill:#FFFFFF;" d="M244.588,481.271c0.001,0,0.001,0,0.002,0c-0.036-0.172-0.064-0.343-0.086-0.512
				C244.525,480.93,244.554,481.1,244.588,481.271z"/>
			<path style="fill:#FFFFFF;" d="M245.213,483.022c-0.005-0.007-0.008-0.016-0.013-0.025
				C245.205,483.007,245.208,483.016,245.213,483.022z"/>
			<path style="fill:#FFFFFF;" d="M245.153,482.906c-0.017-0.033-0.032-0.066-0.048-0.099
				C245.121,482.842,245.137,482.873,245.153,482.906z"/>
			<path style="fill:#FFFFFF;" d="M244.764,481.944c0.092,0.292,0.204,0.575,0.332,0.844c-0.131-0.274-0.24-0.558-0.33-0.844
				H244.764z"/>
			<path style="fill:#FFFFFF;" d="M251.801,473.432c0.365,0,0.634,0.029,0.942,0.082l0.088-0.557c0,0-0.853-0.262-1.974-0.171
				l-0.088-0.301c0.349-0.074,0.609-0.384,0.609-0.754c0-0.424-0.345-0.767-0.768-0.767c-0.426,0-0.77,0.343-0.77,0.767
				c0,0.37,0.262,0.68,0.608,0.754l0.099,0.337c-1.191,0.163-2.138,0.627-2.138,0.627l0.168,0.514
				c0.72-0.239,1.344-0.386,1.91-0.447C251.043,473.458,251.461,473.432,251.801,473.432z"/>
			<path style="fill:#FFFFFF;" d="M245.198,476.24l0.005-0.005c0.027-0.036,0.055-0.07,0.082-0.105l-0.229-0.163l-0.355-0.261
				c-0.02,0.029-0.579,0.542-1.02,1.492c-0.018-0.03-0.04-0.06-0.065-0.087c-0.132-0.145-0.317-0.219-0.552-0.215
				c-0.003,0-0.007,0-0.012,0c-0.145,0-0.244-0.048-0.309-0.107c0.064-0.082,0.104-0.186,0.104-0.302
				c0-0.267-0.218-0.486-0.487-0.486c-0.269,0-0.486,0.22-0.486,0.486c0,0.271,0.218,0.488,0.486,0.488
				c0.043,0,0.082-0.007,0.122-0.016c0.119,0.134,0.31,0.249,0.587,0.243c0.145-0.002,0.249,0.035,0.319,0.113
				c0.081,0.089,0.107,0.215,0.116,0.312c-0.001,0.002-0.001,0.003-0.002,0.003c-0.317,0.866-0.227,1.944-0.227,1.944l0.77,0.031
				c0.016-0.393,0.072-1.08,0.271-1.624C244.698,476.929,245.18,476.27,245.198,476.24z"/>
			<path style="fill:#FFFFFF;" d="M258.498,474.075c-0.267,0-0.486,0.218-0.486,0.487c0,0.041,0.006,0.081,0.018,0.119
				c-0.134,0.121-0.251,0.312-0.246,0.591c0.003,0.143-0.034,0.247-0.112,0.318c-0.061,0.054-0.14,0.084-0.215,0.103
				c-0.573-0.804-1.278-1.293-1.278-1.293l-0.554,0.592c0.418,0.38,0.845,0.856,1.259,1.449c0.287,0.411,0.582,0.939,0.827,1.468
				l0.745-0.355c0,0-0.34-0.842-0.818-1.596c0.082-0.029,0.166-0.075,0.24-0.141c0.146-0.131,0.218-0.317,0.213-0.552
				c-0.001-0.15,0.049-0.253,0.108-0.321c0.084,0.063,0.188,0.103,0.3,0.103c0.271,0,0.488-0.218,0.488-0.486
				C258.986,474.293,258.769,474.075,258.498,474.075z"/>
			<path style="fill:#FFFFFF;" d="M256.564,480.775c-1.027,0.499-2.715,1.161-4.937,1.471c-0.873,0.121-1.718,0.165-2.496,0.165
				c-1.013,0-1.908-0.075-2.595-0.162c-0.783-0.099-1.395-0.219-1.77-0.305c0.09,0.286,0.199,0.569,0.33,0.844
				c0.002,0.007,0.006,0.016,0.01,0.02c0.016,0.033,0.031,0.065,0.048,0.099c0.016,0.031,0.031,0.063,0.047,0.092
				c0.005,0.009,0.008,0.018,0.013,0.025c0.22,0.415,0.485,0.797,0.787,1.128c1.048,1.147,2.116,1.328,2.126,1.329l0.017,0.002
				l0.016,0.006c0.01,0.004,0.957,0.31,2.396,0.31c1.416,0,2.807-0.286,4.131-0.851c0.982-0.502,1.91-1.264,2.369-1.943
				c0.355-0.526,0.613-1.087,0.766-1.67c0.081-0.31,0.145-0.807,0.107-1.329C257.638,480.198,257.182,480.475,256.564,480.775z"/>
			<path style="fill:#FFFFFF;" d="M245.527,476.483c-0.029,0.045-0.475,0.675-0.826,1.642c-0.263,0.724-0.252,1.779-0.252,1.79
				v0.003c0,0.248,0.015,0.492,0.042,0.735c0,0.006,0,0.01,0.001,0.013c0.003,0.031,0.009,0.062,0.012,0.093
				c0.021,0.169,0.05,0.34,0.086,0.512c0.51,0.13,3.552,0.839,6.951,0.365c2.132-0.297,3.75-0.927,4.733-1.403
				c0.816-0.395,1.341-0.754,1.543-0.901c-0.202-0.748-0.758-1.923-1.269-2.655c-1.461-2.086-3.035-2.621-3.843-2.755
				c-0.309-0.05-0.556-0.079-0.905-0.079c-0.326,0-0.73,0.027-1.269,0.084c-0.542,0.056-1.146,0.197-1.845,0.434
				c-0.981,0.328-1.869,0.843-2.567,1.49l-0.023,0.022C245.992,475.968,245.776,476.168,245.527,476.483z M254.461,475.999
				c0.699,0,1.27,0.568,1.27,1.269c0,0.701-0.57,1.27-1.27,1.27c-0.699,0-1.268-0.568-1.268-1.27
				C253.192,476.567,253.762,475.999,254.461,475.999z M248.461,475.947c1.133,0,2.051,0.919,2.051,2.053
				c0,1.132-0.918,2.049-2.051,2.049c-1.132,0-2.05-0.917-2.05-2.049C246.411,476.866,247.329,475.947,248.461,475.947z"/>
		</g>
	</g>
</g>
</svg>
